<svg xmlns="http://www.w3.org/2000/svg" width="980" height="520" viewBox="0 0 980 520">
<rect width="100%" height="100%" fill="#fff"/>
<text x="60" y="18" font-size="20" font-family="Arial" fill="#222">解耦后光流分布</text>
<line x1="60" y1="20" x2="60" y2="480" stroke="#222" stroke-width="1.2"/>
<line x1="60" y1="480" x2="950" y2="480" stroke="#222" stroke-width="1.2"/>
<line x1="511.89" y1="20" x2="511.89" y2="480" stroke="#666" stroke-dasharray="6 4" stroke-width="1.1"/>
<rect x="60.00" y="479.87" width="17.04" height="0.13" fill="#1d78b5" fill-opacity="0.45"/><rect x="60.00" y="479.87" width="17.04" height="0.13" fill="#2e9b54" fill-opacity="0.45"/><rect x="78.54" y="479.87" width="17.04" height="0.13" fill="#1d78b5" fill-opacity="0.45"/><rect x="78.54" y="480.00" width="17.04" height="0.00" fill="#2e9b54" fill-opacity="0.45"/><rect x="97.08" y="479.87" width="17.04" height="0.13" fill="#1d78b5" fill-opacity="0.45"/><rect x="97.08" y="480.00" width="17.04" height="0.00" fill="#2e9b54" fill-opacity="0.45"/><rect x="115.62" y="479.60" width="17.04" height="0.40" fill="#1d78b5" fill-opacity="0.45"/><rect x="115.62" y="480.00" width="17.04" height="0.00" fill="#2e9b54" fill-opacity="0.45"/><rect x="134.17" y="480.00" width="17.04" height="0.00" fill="#1d78b5" fill-opacity="0.45"/><rect x="134.17" y="480.00" width="17.04" height="0.00" fill="#2e9b54" fill-opacity="0.45"/><rect x="152.71" y="479.60" width="17.04" height="0.40" fill="#1d78b5" fill-opacity="0.45"/><rect x="152.71" y="480.00" width="17.04" height="0.00" fill="#2e9b54" fill-opacity="0.45"/><rect x="171.25" y="479.87" width="17.04" height="0.13" fill="#1d78b5" fill-opacity="0.45"/><rect x="171.25" y="479.87" width="17.04" height="0.13" fill="#2e9b54" fill-opacity="0.45"/><rect x="189.79" y="479.60" width="17.04" height="0.40" fill="#1d78b5" fill-opacity="0.45"/><rect x="189.79" y="479.87" width="17.04" height="0.13" fill="#2e9b54" fill-opacity="0.45"/><rect x="208.33" y="479.74" width="17.04" height="0.26" fill="#1d78b5" fill-opacity="0.45"/><rect x="208.33" y="479.87" width="17.04" height="0.13" fill="#2e9b54" fill-opacity="0.45"/><rect x="226.88" y="479.21" width="17.04" height="0.79" fill="#1d78b5" fill-opacity="0.45"/><rect x="226.88" y="480.00" width="17.04" height="0.00" fill="#2e9b54" fill-opacity="0.45"/><rect x="245.42" y="479.21" width="17.04" height="0.79" fill="#1d78b5" fill-opacity="0.45"/><rect x="245.42" y="479.74" width="17.04" height="0.26" fill="#2e9b54" fill-opacity="0.45"/><rect x="263.96" y="479.07" width="17.04" height="0.93" fill="#1d78b5" fill-opacity="0.45"/><rect x="263.96" y="479.60" width="17.04" height="0.40" fill="#2e9b54" fill-opacity="0.45"/><rect x="282.50" y="477.22" width="17.04" height="2.78" fill="#1d78b5" fill-opacity="0.45"/><rect x="282.50" y="479.47" width="17.04" height="0.53" fill="#2e9b54" fill-opacity="0.45"/><rect x="301.04" y="478.01" width="17.04" height="1.99" fill="#1d78b5" fill-opacity="0.45"/><rect x="301.04" y="479.21" width="17.04" height="0.79" fill="#2e9b54" fill-opacity="0.45"/><rect x="319.58" y="477.22" width="17.04" height="2.78" fill="#1d78b5" fill-opacity="0.45"/><rect x="319.58" y="478.28" width="17.04" height="1.72" fill="#2e9b54" fill-opacity="0.45"/><rect x="338.12" y="474.83" width="17.04" height="5.17" fill="#1d78b5" fill-opacity="0.45"/><rect x="338.12" y="477.62" width="17.04" height="2.38" fill="#2e9b54" fill-opacity="0.45"/><rect x="356.67" y="471.92" width="17.04" height="8.08" fill="#1d78b5" fill-opacity="0.45"/><rect x="356.67" y="475.89" width="17.04" height="4.11" fill="#2e9b54" fill-opacity="0.45"/><rect x="375.21" y="468.48" width="17.04" height="11.52" fill="#1d78b5" fill-opacity="0.45"/><rect x="375.21" y="471.92" width="17.04" height="8.08" fill="#2e9b54" fill-opacity="0.45"/><rect x="393.75" y="459.74" width="17.04" height="20.26" fill="#1d78b5" fill-opacity="0.45"/><rect x="393.75" y="467.15" width="17.04" height="12.85" fill="#2e9b54" fill-opacity="0.45"/><rect x="412.29" y="455.76" width="17.04" height="24.24" fill="#1d78b5" fill-opacity="0.45"/><rect x="412.29" y="459.21" width="17.04" height="20.79" fill="#2e9b54" fill-opacity="0.45"/><rect x="430.83" y="433.91" width="17.04" height="46.09" fill="#1d78b5" fill-opacity="0.45"/><rect x="430.83" y="443.05" width="17.04" height="36.95" fill="#2e9b54" fill-opacity="0.45"/><rect x="449.38" y="396.95" width="17.04" height="83.05" fill="#1d78b5" fill-opacity="0.45"/><rect x="449.38" y="413.11" width="17.04" height="66.89" fill="#2e9b54" fill-opacity="0.45"/><rect x="467.92" y="336.56" width="17.04" height="143.44" fill="#1d78b5" fill-opacity="0.45"/><rect x="467.92" y="362.91" width="17.04" height="117.09" fill="#2e9b54" fill-opacity="0.45"/><rect x="486.46" y="175.23" width="17.04" height="304.77" fill="#1d78b5" fill-opacity="0.45"/><rect x="486.46" y="282.78" width="17.04" height="197.22" fill="#2e9b54" fill-opacity="0.45"/><rect x="505.00" y="40.00" width="17.04" height="440.00" fill="#1d78b5" fill-opacity="0.45"/><rect x="505.00" y="145.30" width="17.04" height="334.70" fill="#2e9b54" fill-opacity="0.45"/><rect x="523.54" y="270.33" width="17.04" height="209.67" fill="#1d78b5" fill-opacity="0.45"/><rect x="523.54" y="129.27" width="17.04" height="350.73" fill="#2e9b54" fill-opacity="0.45"/><rect x="542.08" y="344.90" width="17.04" height="135.10" fill="#1d78b5" fill-opacity="0.45"/><rect x="542.08" y="290.86" width="17.04" height="189.14" fill="#2e9b54" fill-opacity="0.45"/><rect x="560.62" y="417.48" width="17.04" height="62.52" fill="#1d78b5" fill-opacity="0.45"/><rect x="560.62" y="360.00" width="17.04" height="120.00" fill="#2e9b54" fill-opacity="0.45"/><rect x="579.17" y="440.66" width="17.04" height="39.34" fill="#1d78b5" fill-opacity="0.45"/><rect x="579.17" y="412.58" width="17.04" height="67.42" fill="#2e9b54" fill-opacity="0.45"/><rect x="597.71" y="457.88" width="17.04" height="22.12" fill="#1d78b5" fill-opacity="0.45"/><rect x="597.71" y="440.66" width="17.04" height="39.34" fill="#2e9b54" fill-opacity="0.45"/><rect x="616.25" y="463.44" width="17.04" height="16.56" fill="#1d78b5" fill-opacity="0.45"/><rect x="616.25" y="458.68" width="17.04" height="21.32" fill="#2e9b54" fill-opacity="0.45"/><rect x="634.79" y="469.27" width="17.04" height="10.73" fill="#1d78b5" fill-opacity="0.45"/><rect x="634.79" y="467.95" width="17.04" height="12.05" fill="#2e9b54" fill-opacity="0.45"/><rect x="653.33" y="472.05" width="17.04" height="7.95" fill="#1d78b5" fill-opacity="0.45"/><rect x="653.33" y="473.11" width="17.04" height="6.89" fill="#2e9b54" fill-opacity="0.45"/><rect x="671.88" y="473.91" width="17.04" height="6.09" fill="#1d78b5" fill-opacity="0.45"/><rect x="671.88" y="476.29" width="17.04" height="3.71" fill="#2e9b54" fill-opacity="0.45"/><rect x="690.42" y="477.48" width="17.04" height="2.52" fill="#1d78b5" fill-opacity="0.45"/><rect x="690.42" y="478.54" width="17.04" height="1.46" fill="#2e9b54" fill-opacity="0.45"/><rect x="708.96" y="478.01" width="17.04" height="1.99" fill="#1d78b5" fill-opacity="0.45"/><rect x="708.96" y="478.94" width="17.04" height="1.06" fill="#2e9b54" fill-opacity="0.45"/><rect x="727.50" y="478.28" width="17.04" height="1.72" fill="#1d78b5" fill-opacity="0.45"/><rect x="727.50" y="479.07" width="17.04" height="0.93" fill="#2e9b54" fill-opacity="0.45"/><rect x="746.04" y="477.75" width="17.04" height="2.25" fill="#1d78b5" fill-opacity="0.45"/><rect x="746.04" y="479.34" width="17.04" height="0.66" fill="#2e9b54" fill-opacity="0.45"/><rect x="764.58" y="478.54" width="17.04" height="1.46" fill="#1d78b5" fill-opacity="0.45"/><rect x="764.58" y="479.47" width="17.04" height="0.53" fill="#2e9b54" fill-opacity="0.45"/><rect x="783.12" y="479.07" width="17.04" height="0.93" fill="#1d78b5" fill-opacity="0.45"/><rect x="783.12" y="479.60" width="17.04" height="0.40" fill="#2e9b54" fill-opacity="0.45"/><rect x="801.67" y="479.60" width="17.04" height="0.40" fill="#1d78b5" fill-opacity="0.45"/><rect x="801.67" y="479.74" width="17.04" height="0.26" fill="#2e9b54" fill-opacity="0.45"/><rect x="820.21" y="479.60" width="17.04" height="0.40" fill="#1d78b5" fill-opacity="0.45"/><rect x="820.21" y="479.87" width="17.04" height="0.13" fill="#2e9b54" fill-opacity="0.45"/><rect x="838.75" y="479.87" width="17.04" height="0.13" fill="#1d78b5" fill-opacity="0.45"/><rect x="838.75" y="480.00" width="17.04" height="0.00" fill="#2e9b54" fill-opacity="0.45"/><rect x="857.29" y="479.74" width="17.04" height="0.26" fill="#1d78b5" fill-opacity="0.45"/><rect x="857.29" y="480.00" width="17.04" height="0.00" fill="#2e9b54" fill-opacity="0.45"/><rect x="875.83" y="479.34" width="17.04" height="0.66" fill="#1d78b5" fill-opacity="0.45"/><rect x="875.83" y="480.00" width="17.04" height="0.00" fill="#2e9b54" fill-opacity="0.45"/><rect x="894.38" y="480.00" width="17.04" height="0.00" fill="#1d78b5" fill-opacity="0.45"/><rect x="894.38" y="480.00" width="17.04" height="0.00" fill="#2e9b54" fill-opacity="0.45"/><rect x="912.92" y="480.00" width="17.04" height="0.00" fill="#1d78b5" fill-opacity="0.45"/><rect x="912.92" y="479.87" width="17.04" height="0.13" fill="#2e9b54" fill-opacity="0.45"/><rect x="931.46" y="479.87" width="17.04" height="0.13" fill="#1d78b5" fill-opacity="0.45"/><rect x="931.46" y="479.87" width="17.04" height="0.13" fill="#2e9b54" fill-opacity="0.45"/>
<rect x="700" y="38" width="210" height="72" fill="#fff" stroke="#ddd"/>
<rect x="720" y="58" width="22" height="12" fill="#1d78b5" fill-opacity="0.45"/><text x="750" y="68" font-size="13" font-family="Arial">dec_x</text>
<rect x="720" y="86" width="22" height="12" fill="#2e9b54" fill-opacity="0.45"/><text x="750" y="96" font-size="13" font-family="Arial">dec_y</text>
<text x="60" y="510" font-size="12" font-family="Arial" fill="#444">decoupled delta / count</text>
<text x="12" y="260" font-size="12" font-family="Arial" fill="#444" transform="rotate(-90 12,260)">count</text>
</svg>