<svg xmlns="http://www.w3.org/2000/svg" width="1180" height="720" viewBox="0 0 1180 720">
<rect width="100%" height="100%" fill="#fffdf8"/>
<text x="70" y="24" font-size="22" font-family="Arial" fill="#222">03252307_pmwgyro offset=0 alpha=0.05 频域图</text>
<text x="70" y="44" font-size="12" font-family="Arial" fill="#555">采样频率 50Hz，对 dec_x / dec_y 与原始 raw_x / raw_y 分别做单边 FFT 幅值谱。</text>

<line x1="70.0" y1="50.0" x2="70.0" y2="310.0" stroke="#222" stroke-width="1.2"/>
<line x1="70.0" y1="310.0" x2="1120.0" y2="310.0" stroke="#222" stroke-width="1.2"/>
<polyline fill="none" stroke="#c35a42" stroke-width="1.8" points="70.00,286.44 71.03,287.08 72.05,290.49 73.08,298.74 74.10,301.26 75.13,303.09 76.15,295.59 77.18,294.09 78.20,299.84 79.23,304.51 80.25,307.48 81.28,300.26 82.30,300.90 83.33,302.06 84.36,301.42 85.38,298.62 86.41,291.51 87.43,291.44 88.46,289.10 89.48,279.05 90.51,287.89 91.53,299.83 92.56,298.94 93.58,299.98 94.61,302.32 95.63,286.24 96.66,283.37 97.69,295.50 98.71,295.01 99.74,282.65 100.76,281.20 101.79,283.28 102.81,300.04 103.84,294.79 104.86,277.35 105.89,276.31 106.91,285.81 107.94,290.87 108.96,288.08 109.99,276.25 111.02,270.55 112.04,298.17 113.07,307.57 114.09,295.73 115.12,295.51 116.14,303.63 117.17,300.22 118.19,279.63 119.22,266.87 120.24,260.83 121.27,266.60 122.29,300.83 123.32,298.72 124.35,289.61 125.37,304.32 126.40,302.17 127.42,285.24 128.45,283.15 129.47,284.37 130.50,289.98 131.52,299.95 132.55,294.42 133.57,278.65 134.60,296.41 135.62,295.68 136.65,263.16 137.68,253.69 138.70,267.62 139.73,254.69 140.75,258.56 141.78,251.25 142.80,269.61 143.83,305.38 144.85,279.61 145.88,271.22 146.90,286.34 147.93,298.39 148.96,287.24 149.98,298.51 151.01,296.88 152.03,300.43 153.06,302.42 154.08,285.02 155.11,288.53 156.13,268.32 157.16,271.00 158.18,288.48 159.21,272.58 160.23,285.10 161.26,283.07 162.29,274.12 163.31,262.44 164.34,255.85 165.36,264.88 166.39,284.00 167.41,281.41 168.44,279.86 169.46,269.29 170.49,278.91 171.51,264.77 172.54,272.80 173.56,304.31 174.59,266.29 175.62,262.14 176.64,300.13 177.67,259.35 178.69,259.68 179.72,296.63 180.74,264.10 181.77,303.55 182.79,271.82 183.82,269.80 184.84,240.36 185.87,247.19 186.89,263.34 187.92,302.04 188.95,292.86 189.97,285.96 191.00,273.22 192.02,292.84 193.05,265.84 194.07,291.44 195.10,288.80 196.12,286.34 197.15,258.11 198.17,289.04 199.20,305.07 200.22,282.82 201.25,283.45 202.28,290.11 203.30,289.34 204.33,285.93 205.35,280.42 206.38,302.06 207.40,307.92 208.43,287.54 209.45,279.11 210.48,302.22 211.50,297.47 212.53,285.24 213.55,274.68 214.58,284.31 215.61,284.05 216.63,295.43 217.66,280.35 218.68,279.67 219.71,290.68 220.73,293.67 221.76,297.25 222.78,302.55 223.81,294.29 224.83,301.76 225.86,278.08 226.88,273.81 227.91,273.66 228.94,276.47 229.96,287.33 230.99,290.40 232.01,290.22 233.04,278.20 234.06,284.05 235.09,285.91 236.11,290.62 237.14,287.51 238.16,295.33 239.19,298.06 240.21,298.20 241.24,291.38 242.27,284.90 243.29,277.75 244.32,293.10 245.34,297.69 246.37,289.25 247.39,289.44 248.42,298.10 249.44,298.24 250.47,292.27 251.49,279.00 252.52,297.33 253.54,298.96 254.57,298.11 255.60,285.73 256.62,294.23 257.65,287.93 258.67,293.52 259.70,276.34 260.72,286.80 261.75,291.29 262.77,296.05 263.80,308.01 264.82,296.86 265.85,289.39 266.88,297.01 267.90,299.99 268.93,296.37 269.95,293.13 270.98,280.63 272.00,291.90 273.03,283.90 274.05,284.67 275.08,277.24 276.10,273.03 277.13,283.69 278.15,291.02 279.18,288.98 280.21,280.88 281.23,289.00 282.26,296.83 283.28,296.33 284.31,307.73 285.33,303.56 286.36,303.82 287.38,305.02 288.41,303.57 289.43,300.39 290.46,285.48 291.48,288.19 292.51,297.22 293.54,298.37 294.56,287.85 295.59,299.15 296.61,296.89 297.64,292.88 298.66,288.48 299.69,293.97 300.71,307.07 301.74,306.17 302.76,295.29 303.79,293.72 304.81,301.58 305.84,298.37 306.87,300.37 307.89,304.49 308.92,295.91 309.94,292.55 310.97,286.85 311.99,292.11 313.02,302.46 314.04,299.21 315.07,295.08 316.09,296.29 317.12,296.49 318.14,301.57 319.17,302.56 320.20,291.43 321.22,285.69 322.25,289.62 323.27,291.40 324.30,277.46 325.32,264.14 326.35,266.97 327.37,279.38 328.40,282.84 329.42,279.66 330.45,288.11 331.47,295.13 332.50,292.64 333.53,285.11 334.55,285.07 335.58,296.02 336.60,293.58 337.63,287.89 338.65,286.82 339.68,286.79 340.70,281.83 341.73,278.09 342.75,284.86 343.78,294.84 344.80,302.51 345.83,301.88 346.86,283.91 347.88,279.47 348.91,286.06 349.93,283.79 350.96,295.50 351.98,302.40 353.01,305.07 354.03,295.06 355.06,299.92 356.08,299.54 357.11,307.78 358.13,298.57 359.16,302.46 360.19,298.26 361.21,290.53 362.24,279.44 363.26,284.24 364.29,272.10 365.31,288.04 366.34,297.33 367.36,291.34 368.39,288.67 369.41,298.53 370.44,303.58 371.46,291.40 372.49,286.08 373.52,287.72 374.54,298.62 375.57,291.08 376.59,288.95 377.62,288.80 378.64,300.25 379.67,303.87 380.69,296.59 381.72,286.01 382.74,286.89 383.77,289.20 384.79,290.86 385.82,288.42 386.85,283.80 387.87,294.67 388.90,300.12 389.92,295.92 390.95,300.19 391.97,298.83 393.00,300.17 394.02,295.28 395.05,302.59 396.07,299.45 397.10,303.62 398.12,301.74 399.15,298.34 400.18,291.38 401.20,282.11 402.23,288.07 403.25,296.31 404.28,297.92 405.30,301.65 406.33,307.77 407.35,302.89 408.38,301.76 409.40,302.61 410.43,295.71 411.46,285.24 412.48,290.83 413.51,299.77 414.53,291.79 415.56,284.36 416.58,290.84 417.61,296.24 418.63,292.46 419.66,292.11 420.68,287.31 421.71,294.06 422.73,295.48 423.76,281.54 424.79,277.35 425.81,281.71 426.84,282.43 427.86,275.49 428.89,281.71 429.91,297.32 430.94,299.55 431.96,297.02 432.99,305.06 434.01,289.87 435.04,296.29 436.06,305.55 437.09,306.83 438.12,290.95 439.14,299.70 440.17,295.54 441.19,286.89 442.22,284.78 443.24,286.88 444.27,276.82 445.29,274.68 446.32,279.75 447.34,285.74 448.37,289.27 449.39,295.53 450.42,297.62 451.45,301.61 452.47,298.97 453.50,290.70 454.52,280.51 455.55,278.68 456.57,278.82 457.60,283.50 458.62,289.22 459.65,285.65 460.67,277.11 461.70,273.29 462.72,272.82 463.75,280.21 464.78,285.08 465.80,274.05 466.83,269.73 467.85,281.87 468.88,285.08 469.90,271.08 470.93,267.96 471.95,282.98 472.98,293.64 474.00,297.94 475.03,290.37 476.05,297.40 477.08,306.09 478.11,300.72 479.13,293.00 480.16,303.05 481.18,298.17 482.21,287.50 483.23,287.50 484.26,288.57 485.28,307.00 486.31,301.08 487.33,296.03 488.36,284.10 489.38,293.30 490.41,299.34 491.44,288.08 492.46,279.21 493.49,290.27 494.51,299.10 495.54,290.28 496.56,275.99 497.59,280.61 498.61,294.64 499.64,294.16 500.66,281.18 501.69,273.27 502.71,267.18 503.74,264.37 504.77,256.65 505.79,248.70 506.82,245.72 507.84,252.45 508.87,257.11 509.89,247.06 510.92,240.14 511.94,246.61 512.97,250.49 513.99,241.98 515.02,234.20 516.04,233.79 517.07,245.44 518.10,248.60 519.12,246.80 520.15,251.10 521.17,255.02 522.20,256.43 523.22,260.91 524.25,278.09 525.27,281.23 526.30,265.62 527.32,253.20 528.35,250.70 529.38,260.29 530.40,262.72 531.43,253.41 532.45,257.11 533.48,263.44 534.50,255.42 535.53,253.78 536.55,263.00 537.58,269.25 538.60,267.56 539.63,259.91 540.65,254.69 541.68,253.78 542.71,248.76 543.73,248.31 544.76,255.71 545.78,263.33 546.81,261.19 547.83,246.47 548.86,249.12 549.88,256.21 550.91,243.86 551.93,236.49 552.96,244.00 553.98,246.17 555.01,239.49 556.04,236.91 557.06,243.86 558.09,249.67 559.11,245.53 560.14,241.21 561.16,239.32 562.19,247.57 563.21,259.38 564.24,256.08 565.26,253.38 566.29,259.81 567.31,261.90 568.34,252.58 569.37,249.01 570.39,254.35 571.42,255.71 572.44,244.47 573.47,236.40 574.49,241.84 575.52,245.74 576.54,242.71 577.57,237.24 578.59,236.15 579.62,236.42 580.64,233.32 581.67,226.96 582.70,222.12 583.72,232.83 584.75,232.65 585.77,219.18 586.80,213.06 587.82,213.65 588.85,217.31 589.87,218.76 590.90,216.00 591.92,211.82 592.95,207.03 593.97,201.66 595.00,200.82 596.03,201.66 597.05,205.79 598.08,217.65 599.10,235.15 600.13,240.25 601.15,238.14 602.18,242.87 603.20,242.73 604.23,235.12 605.25,226.27 606.28,217.95 607.30,205.37 608.33,206.69 609.36,217.63 610.38,220.74 611.41,220.53 612.43,231.59 613.46,243.11 614.48,247.55 615.51,239.57 616.53,229.64 617.56,236.89 618.58,243.72 619.61,237.90 620.63,242.08 621.66,259.96 622.69,269.50 623.71,265.27 624.74,253.33 625.76,241.04 626.79,236.47 627.81,236.76 628.84,238.26 629.86,236.94 630.89,230.36 631.91,225.46 632.94,223.82 633.96,214.85 634.99,203.32 636.02,191.35 637.04,171.92 638.07,158.27 639.09,153.53 640.12,154.50 641.14,157.48 642.17,161.95 643.19,174.24 644.22,177.30 645.24,178.49 646.27,186.20 647.29,184.58 648.32,174.32 649.35,164.34 650.37,167.29 651.40,179.76 652.42,191.00 653.45,207.42 654.47,229.97 655.50,252.76 656.52,264.64 657.55,262.51 658.57,256.78 659.60,253.71 660.62,252.29 661.65,253.88 662.68,258.01 663.70,254.06 664.73,248.48 665.75,250.71 666.78,248.73 667.80,243.03 668.83,244.13 669.85,238.15 670.88,211.41 671.90,194.29 672.93,194.32 673.96,176.04 674.98,147.80 676.01,140.72 677.03,149.97 678.06,151.70 679.08,152.25 680.11,171.92 681.13,187.45 682.16,186.28 683.18,195.11 684.21,212.03 685.23,207.59 686.26,198.64 687.29,217.64 688.31,247.81 689.34,250.62 690.36,249.26 691.39,267.76 692.41,268.08 693.44,266.39 694.46,275.12 695.49,276.82 696.51,270.97 697.54,281.90 698.56,301.43 699.59,290.10 700.62,284.88 701.64,282.71 702.67,274.76 703.69,266.83 704.72,269.95 705.74,286.08 706.77,298.85 707.79,306.79 708.82,295.02 709.84,274.78 710.87,261.70 711.89,258.37 712.92,247.56 713.95,226.46 714.97,221.15 716.00,235.32 717.02,246.21 718.05,253.19 719.07,270.25 720.10,288.79 721.12,305.48 722.15,294.73 723.17,284.85 724.20,290.67 725.22,296.84 726.25,290.69 727.28,298.55 728.30,285.78 729.33,247.67 730.35,220.59 731.38,198.84 732.40,171.30 733.43,149.74 734.45,143.47 735.48,143.44 736.50,151.70 737.53,173.93 738.55,205.74 739.58,233.06 740.61,255.14 741.63,281.19 742.66,280.08 743.68,265.41 744.71,250.65 745.73,224.31 746.76,190.34 747.78,162.16 748.81,140.84 749.83,119.52 750.86,108.80 751.88,114.14 752.91,121.13 753.94,130.40 754.96,156.79 755.99,196.83 757.01,236.43 758.04,264.55 759.06,257.57 760.09,233.79 761.11,214.07 762.14,197.97 763.16,182.30 764.19,169.47 765.21,168.18 766.24,175.88 767.27,182.30 768.29,184.27 769.32,181.13 770.34,182.37 771.37,203.73 772.39,229.59 773.42,245.68 774.44,269.20 775.47,279.51 776.49,260.77 777.52,235.38 778.54,202.88 779.57,174.20 780.60,159.36 781.62,157.66 782.65,159.55 783.67,162.57 784.70,161.97 785.72,165.66 786.75,193.78 787.77,216.86 788.80,211.97 789.82,217.31 790.85,237.98 791.88,245.18 792.90,238.14 793.93,232.45 794.95,231.96 795.98,219.27 797.00,206.68 798.03,212.65 799.05,221.15 800.08,217.71 801.10,224.66 802.13,243.37 803.15,244.02 804.18,239.68 805.21,258.58 806.23,275.37 807.26,262.01 808.28,253.47 809.31,261.67 810.33,265.86 811.36,255.65 812.38,249.14 813.41,242.11 814.43,223.75 815.46,222.41 816.48,236.17 817.51,223.90 818.54,208.14 819.56,212.75 820.59,218.21 821.61,215.16 822.64,225.29 823.66,240.63 824.69,237.85 825.71,233.00 826.74,234.71 827.76,225.68 828.79,207.11 829.81,190.52 830.84,181.68 831.87,164.05 832.89,138.60 833.92,129.35 834.94,126.92 835.97,112.82 836.99,102.17 838.02,108.75 839.04,113.94 840.07,107.60 841.09,118.13 842.12,144.97 843.14,154.20 844.17,163.97 845.20,197.37 846.22,226.99 847.25,245.03 848.27,265.56 849.30,287.99 850.32,295.57 851.35,283.84 852.37,271.71 853.40,277.25 854.42,267.20 855.45,247.25 856.47,243.42 857.50,239.50 858.53,222.05 859.55,204.45 860.58,198.91 861.60,209.07 862.63,212.42 863.65,197.98 864.68,191.69 865.70,195.13 866.73,196.88 867.75,201.18 868.78,200.53 869.80,190.28 870.83,186.38 871.86,193.39 872.88,195.72 873.91,199.63 874.93,210.66 875.96,215.77 876.98,214.99 878.01,218.74 879.03,225.98 880.06,231.97 881.08,240.15 882.11,248.84 883.13,243.27 884.16,239.46 885.19,246.24 886.21,255.96 887.24,250.76 888.26,244.96 889.29,249.84 890.31,249.03 891.34,243.05 892.36,251.03 893.39,258.19 894.41,253.62 895.44,259.96 896.46,271.10 897.49,271.65 898.52,272.00 899.54,281.71 900.57,290.22 901.59,287.70 902.62,286.70 903.64,282.52 904.67,286.18 905.69,296.86 906.72,292.80 907.74,278.44 908.77,272.32 909.79,275.69 910.82,279.17 911.85,279.55 912.87,286.93 913.90,289.06 914.92,279.55 915.95,286.15 916.97,290.72 918.00,274.00 919.02,268.61 920.05,275.13 921.07,274.81 922.10,268.33 923.12,276.32 924.15,284.72 925.18,272.63 926.20,268.19 927.23,278.02 928.25,276.29 929.28,268.84 930.30,275.45 931.33,279.67 932.35,275.55 933.38,280.95 934.40,291.64 935.43,285.48 936.46,290.52 937.48,300.62 938.51,296.37 939.53,293.75 940.56,304.86 941.58,308.54 942.61,304.82 943.63,306.99 944.66,292.65 945.68,293.88 946.71,299.75 947.73,288.93 948.76,281.21 949.79,283.25 950.81,279.97 951.84,269.90 952.86,267.97 953.89,274.60 954.91,278.07 955.94,271.69 956.96,273.27 957.99,284.28 959.01,279.62 960.04,273.42 961.06,278.33 962.09,289.38 963.12,295.39 964.14,288.67 965.17,285.56 966.19,288.33 967.22,291.11 968.24,287.79 969.27,286.06 970.29,293.82 971.32,300.33 972.34,294.49 973.37,293.39 974.39,299.39 975.42,300.64 976.45,294.70 977.47,294.53 978.50,290.87 979.52,279.45 980.55,284.59 981.57,297.49 982.60,300.65 983.62,293.31 984.65,298.25 985.67,304.35 986.70,305.65 987.72,294.84 988.75,284.13 989.78,285.49 990.80,284.97 991.83,275.14 992.85,273.67 993.88,277.92 994.90,273.35 995.93,271.98 996.95,275.71 997.98,275.65 999.00,281.87 1000.03,284.66 1001.05,278.14 1002.08,282.33 1003.11,289.92 1004.13,285.49 1005.16,283.63 1006.18,289.53 1007.21,288.85 1008.23,292.36 1009.26,304.81 1010.28,296.36 1011.31,292.01 1012.33,302.82 1013.36,307.10 1014.38,298.75 1015.41,296.46 1016.44,305.52 1017.46,307.19 1018.49,297.41 1019.51,297.77 1020.54,296.58 1021.56,299.50 1022.59,296.01 1023.61,294.58 1024.64,305.64 1025.66,303.56 1026.69,302.12 1027.71,294.62 1028.74,301.02 1029.77,305.72 1030.79,302.04 1031.82,298.98 1032.84,300.59 1033.87,307.70 1034.89,307.45 1035.92,306.43 1036.94,294.92 1037.97,291.63 1038.99,302.37 1040.02,303.03 1041.04,298.74 1042.07,298.50 1043.10,287.90 1044.12,286.85 1045.15,301.41 1046.17,295.02 1047.20,289.93 1048.22,295.78 1049.25,298.84 1050.27,293.45 1051.30,301.03 1052.32,296.08 1053.35,291.75 1054.38,297.14 1055.40,298.14 1056.43,289.05 1057.45,290.69 1058.48,301.23 1059.50,299.78 1060.53,301.80 1061.55,303.18 1062.58,304.71 1063.60,296.31 1064.63,294.68 1065.65,298.01 1066.68,296.50 1067.71,289.25 1068.73,282.75 1069.76,285.40 1070.78,287.12 1071.81,287.42 1072.83,290.56 1073.86,294.31 1074.88,292.81 1075.91,294.97 1076.93,299.31 1077.96,296.06 1078.98,286.21 1080.01,286.43 1081.04,288.18 1082.06,283.29 1083.09,286.25 1084.11,285.38 1085.14,274.55 1086.16,274.53 1087.19,279.25 1088.21,273.00 1089.24,265.82 1090.26,261.74 1091.29,264.54 1092.31,271.56 1093.34,275.91 1094.37,275.79 1095.39,276.64 1096.42,285.89 1097.44,299.41 1098.47,301.20 1099.49,294.32 1100.52,293.48 1101.54,300.81 1102.57,306.59 1103.59,301.79 1104.62,295.97 1105.64,293.50 1106.67,295.28 1107.70,299.25 1108.72,303.58 1109.75,297.42 1110.77,293.63 1111.80,302.78 1112.82,302.71 1113.85,302.49 1114.87,300.58 1115.90,284.54 1116.92,284.71 1117.95,287.96 1118.97,285.78 1120.00,282.50"/>
<polyline fill="none" stroke="#1d78b5" stroke-width="1.8" points="70.00,281.90 71.03,282.39 72.05,285.05 73.08,291.19 74.10,295.65 75.13,297.46 76.15,294.94 77.18,296.69 78.20,300.88 79.23,303.32 80.25,307.33 81.28,307.45 82.30,303.95 83.33,302.23 84.36,301.01 85.38,297.94 86.41,299.59 87.43,303.35 88.46,299.92 89.48,295.59 90.51,300.77 91.53,305.93 92.56,304.25 93.58,298.81 94.61,302.20 95.63,300.39 96.66,302.05 97.69,306.59 98.71,303.09 99.74,295.81 100.76,296.43 101.79,299.88 102.81,300.55 103.84,296.81 104.86,295.41 105.89,296.11 106.91,292.62 107.94,291.80 108.96,292.90 109.99,287.04 111.02,284.09 112.04,292.57 113.07,300.74 114.09,301.91 115.12,304.18 116.14,308.05 117.17,307.36 118.19,300.02 119.22,295.52 120.24,296.86 121.27,295.31 122.29,300.93 123.32,304.65 124.35,301.81 125.37,302.60 126.40,305.36 127.42,303.37 128.45,302.68 129.47,301.62 130.50,295.49 131.52,299.41 132.55,304.01 133.57,305.02 134.60,303.91 135.62,298.29 136.65,296.94 137.68,300.53 138.70,300.54 139.73,303.82 140.75,302.07 141.78,301.96 142.80,303.73 143.83,303.54 144.85,303.36 145.88,302.49 146.90,303.26 147.93,304.94 148.96,304.91 149.98,302.80 151.01,300.49 152.03,298.20 153.06,299.66 154.08,303.73 155.11,301.89 156.13,295.78 157.16,299.40 158.18,302.90 159.21,296.36 160.23,296.66 161.26,299.72 162.29,298.58 163.31,305.91 164.34,302.35 165.36,297.61 166.39,299.95 167.41,302.96 168.44,301.57 169.46,288.29 170.49,286.50 171.51,297.21 172.54,307.08 173.56,301.68 174.59,304.09 175.62,308.60 176.64,304.06 177.67,303.87 178.69,304.47 179.72,303.19 180.74,291.64 181.77,295.52 182.79,302.48 183.82,300.85 184.84,287.81 185.87,287.67 186.89,293.28 187.92,303.24 188.95,309.55 189.97,306.91 191.00,304.91 192.02,301.78 193.05,303.22 194.07,300.61 195.10,299.69 196.12,303.76 197.15,303.23 198.17,298.61 199.20,300.07 200.22,300.82 201.25,303.96 202.28,307.07 203.30,307.14 204.33,306.06 205.35,299.30 206.38,296.02 207.40,298.73 208.43,296.16 209.45,289.83 210.48,293.56 211.50,299.30 212.53,294.86 213.55,295.64 214.58,304.64 215.61,302.41 216.63,298.10 217.66,301.83 218.68,302.64 219.71,302.84 220.73,305.20 221.76,304.88 222.78,299.22 223.81,293.92 224.83,298.85 225.86,302.02 226.88,300.90 227.91,297.66 228.94,305.50 229.96,303.32 230.99,303.52 232.01,306.95 233.04,306.00 234.06,302.44 235.09,295.88 236.11,293.72 237.14,295.81 238.16,301.95 239.19,300.97 240.21,296.45 241.24,297.71 242.27,304.15 243.29,307.84 244.32,305.51 245.34,303.80 246.37,306.08 247.39,309.19 248.42,308.96 249.44,308.02 250.47,307.32 251.49,307.90 252.52,305.92 253.54,305.22 254.57,307.41 255.60,303.74 256.62,295.97 257.65,297.73 258.67,305.26 259.70,307.73 260.72,305.87 261.75,303.99 262.77,301.37 263.80,299.07 264.82,301.06 265.85,303.45 266.88,297.33 267.90,296.30 268.93,302.87 269.95,306.16 270.98,309.60 272.00,300.76 273.03,296.45 274.05,301.74 275.08,309.62 276.10,301.72 277.13,297.48 278.15,298.36 279.18,301.73 280.21,305.78 281.23,306.77 282.26,304.24 283.28,303.78 284.31,305.67 285.33,304.42 286.36,298.65 287.38,295.36 288.41,297.41 289.43,291.26 290.46,288.54 291.48,293.98 292.51,298.25 293.54,289.02 294.56,292.92 295.59,302.97 296.61,300.41 297.64,296.37 298.66,298.28 299.69,300.02 300.71,300.66 301.74,297.79 302.76,294.47 303.79,295.77 304.81,296.79 305.84,295.47 306.87,298.45 307.89,303.14 308.92,303.15 309.94,300.74 310.97,303.67 311.99,305.79 313.02,304.59 314.04,305.60 315.07,306.31 316.09,307.74 317.12,307.40 318.14,309.24 319.17,305.90 320.20,303.34 321.22,298.89 322.25,296.29 323.27,296.59 324.30,295.55 325.32,290.63 326.35,288.69 327.37,292.74 328.40,298.24 329.42,301.81 330.45,304.49 331.47,306.83 332.50,308.35 333.53,306.39 334.55,307.75 335.58,305.76 336.60,299.97 337.63,300.90 338.65,307.19 339.68,305.07 340.70,300.66 341.73,304.09 342.75,306.83 343.78,304.63 344.80,304.30 345.83,304.16 346.86,305.95 347.88,307.64 348.91,300.90 349.93,298.78 350.96,303.59 351.98,303.27 353.01,306.67 354.03,307.07 355.06,307.56 356.08,306.63 357.11,300.58 358.13,295.98 359.16,299.07 360.19,303.88 361.21,304.11 362.24,301.24 363.26,304.39 364.29,301.81 365.31,303.60 366.34,303.93 367.36,303.47 368.39,309.06 369.41,307.40 370.44,301.98 371.46,305.16 372.49,306.16 373.52,305.50 374.54,303.64 375.57,306.31 376.59,306.23 377.62,301.15 378.64,303.20 379.67,309.05 380.69,308.42 381.72,306.63 382.74,305.59 383.77,300.12 384.79,297.18 385.82,297.60 386.85,295.30 387.87,297.46 388.90,299.03 389.92,295.59 390.95,296.31 391.97,297.46 393.00,301.59 394.02,300.64 395.05,306.10 396.07,301.68 397.10,303.22 398.12,305.69 399.15,306.01 400.18,303.85 401.20,301.64 402.23,302.11 403.25,301.09 404.28,302.14 405.30,302.15 406.33,302.47 407.35,302.81 408.38,303.88 409.40,303.70 410.43,302.52 411.46,302.08 412.48,297.84 413.51,295.85 414.53,298.37 415.56,301.66 416.58,306.66 417.61,302.83 418.63,308.89 419.66,304.38 420.68,302.54 421.71,303.74 422.73,307.64 423.76,306.74 424.79,301.06 425.81,297.17 426.84,297.92 427.86,299.74 428.89,296.99 429.91,298.03 430.94,301.23 431.96,302.53 432.99,300.41 434.01,301.23 435.04,300.18 436.06,296.82 437.09,302.30 438.12,307.54 439.14,308.11 440.17,302.75 441.19,296.40 442.22,298.81 443.24,303.80 444.27,301.44 445.29,296.39 446.32,294.42 447.34,296.42 448.37,300.04 449.39,303.97 450.42,307.12 451.45,304.16 452.47,304.85 453.50,307.87 454.52,308.73 455.55,307.31 456.57,305.11 457.60,309.43 458.62,307.09 459.65,306.68 460.67,305.75 461.70,303.60 462.72,305.83 463.75,304.11 464.78,305.08 465.80,300.76 466.83,294.66 467.85,294.22 468.88,298.93 469.90,298.29 470.93,294.03 471.95,291.14 472.98,292.92 474.00,300.70 475.03,301.81 476.05,303.05 477.08,303.20 478.11,306.83 479.13,306.51 480.16,306.46 481.18,305.81 482.21,302.70 483.23,301.53 484.26,307.10 485.28,305.16 486.31,304.12 487.33,306.86 488.36,305.73 489.38,307.88 490.41,309.27 491.44,308.87 492.46,306.28 493.49,303.05 494.51,303.00 495.54,306.97 496.56,308.06 497.59,305.78 498.61,300.12 499.64,304.73 500.66,305.80 501.69,305.22 502.71,306.94 503.74,305.38 504.77,308.35 505.79,305.60 506.82,304.81 507.84,305.78 508.87,303.07 509.89,302.24 510.92,301.97 511.94,302.93 512.97,306.15 513.99,306.02 515.02,299.32 516.04,297.61 517.07,300.49 518.10,302.92 519.12,303.05 520.15,308.25 521.17,306.17 522.20,307.98 523.22,303.02 524.25,301.90 525.27,298.20 526.30,298.59 527.32,298.64 528.35,301.12 529.38,303.72 530.40,304.03 531.43,303.65 532.45,305.09 533.48,308.52 534.50,306.53 535.53,303.35 536.55,303.80 537.58,309.66 538.60,305.95 539.63,307.42 540.65,302.72 541.68,302.29 542.71,307.46 543.73,306.28 544.76,303.90 545.78,299.42 546.81,307.36 547.83,302.36 548.86,303.20 549.88,305.15 550.91,300.96 551.93,295.72 552.96,295.73 553.98,299.35 555.01,300.11 556.04,296.45 557.06,296.88 558.09,301.53 559.11,302.01 560.14,302.81 561.16,306.77 562.19,305.69 563.21,306.32 564.24,301.62 565.26,297.37 566.29,295.71 567.31,295.22 568.34,297.76 569.37,304.17 570.39,305.61 571.42,305.66 572.44,305.45 573.47,301.62 574.49,301.65 575.52,303.28 576.54,302.88 577.57,303.95 578.59,303.11 579.62,302.73 580.64,298.07 581.67,296.15 582.70,297.34 583.72,301.04 584.75,302.37 585.77,299.54 586.80,297.80 587.82,297.13 588.85,297.20 589.87,298.96 590.90,300.26 591.92,298.80 592.95,295.53 593.97,292.56 595.00,290.76 596.03,291.18 597.05,292.30 598.08,291.25 599.10,290.49 600.13,293.57 601.15,296.85 602.18,299.11 603.20,299.66 604.23,296.66 605.25,295.42 606.28,292.49 607.30,283.29 608.33,281.32 609.36,287.84 610.38,289.17 611.41,287.91 612.43,290.50 613.46,292.59 614.48,289.40 615.51,282.72 616.53,281.92 617.56,287.44 618.58,287.83 619.61,284.90 620.63,287.79 621.66,294.74 622.69,298.82 623.71,299.64 624.74,302.49 625.76,307.26 626.79,308.84 627.81,307.30 628.84,303.66 629.86,302.77 630.89,298.38 631.91,298.10 632.94,304.30 633.96,306.45 634.99,305.40 636.02,303.42 637.04,305.96 638.07,307.01 639.09,301.81 640.12,302.66 641.14,302.90 642.17,299.37 643.19,294.13 644.22,290.30 645.24,294.68 646.27,299.62 647.29,297.91 648.32,296.15 649.35,293.39 650.37,291.05 651.40,291.83 652.42,291.52 653.45,291.82 654.47,292.36 655.50,293.90 656.52,294.08 657.55,291.27 658.57,292.04 659.60,292.62 660.62,291.89 661.65,292.39 662.68,297.60 663.70,299.81 664.73,295.51 665.75,296.13 666.78,300.23 667.80,299.79 668.83,298.80 669.85,299.51 670.88,296.98 671.90,296.06 672.93,298.11 673.96,296.17 674.98,290.41 676.01,287.81 677.03,289.28 678.06,290.36 679.08,289.54 680.11,290.71 681.13,293.30 682.16,291.43 683.18,293.39 684.21,299.60 685.23,298.62 686.26,292.79 687.29,293.89 688.31,303.33 689.34,305.57 690.36,307.58 691.39,306.48 692.41,301.63 693.44,300.76 694.46,298.48 695.49,297.11 696.51,299.75 697.54,302.73 698.56,302.40 699.59,298.71 700.62,301.56 701.64,306.36 702.67,304.14 703.69,301.70 704.72,304.35 705.74,305.10 706.77,300.82 707.79,299.33 708.82,295.20 709.84,289.96 710.87,289.42 711.89,293.18 712.92,290.77 713.95,282.72 714.97,283.35 716.00,292.42 717.02,299.63 718.05,300.68 719.07,304.29 720.10,307.63 721.12,302.72 722.15,298.89 723.17,299.96 724.20,300.43 725.22,295.87 726.25,295.34 727.28,296.46 728.30,298.59 729.33,289.76 730.35,287.77 731.38,292.16 732.40,289.51 733.43,282.21 734.45,281.79 735.48,286.00 736.50,290.08 737.53,294.16 738.55,297.80 739.58,302.05 740.61,302.10 741.63,301.33 742.66,308.66 743.68,303.31 744.71,300.19 745.73,292.01 746.76,281.48 747.78,277.46 748.81,273.65 749.83,266.90 750.86,266.21 751.88,266.78 752.91,266.16 753.94,270.75 754.96,278.75 755.99,285.45 757.01,295.04 758.04,306.78 759.06,307.43 760.09,302.70 761.11,295.47 762.14,293.57 763.16,291.89 764.19,288.96 765.21,291.01 766.24,293.67 767.27,289.01 768.29,284.60 769.32,284.99 770.34,284.54 771.37,284.39 772.39,285.62 773.42,287.50 774.44,293.96 775.47,297.53 776.49,299.87 777.52,298.62 778.54,290.45 779.57,284.71 780.60,280.59 781.62,276.40 782.65,271.58 783.67,271.84 784.70,275.12 785.72,273.94 786.75,276.54 787.77,285.41 788.80,289.87 789.82,290.65 790.85,293.21 791.88,292.12 792.90,287.26 793.93,286.96 794.95,290.84 795.98,292.99 797.00,292.57 798.03,292.18 799.05,290.18 800.08,285.97 801.10,289.22 802.13,296.88 803.15,296.47 804.18,291.51 805.21,295.30 806.23,304.38 807.26,302.37 808.28,295.05 809.31,295.38 810.33,296.78 811.36,295.14 812.38,294.47 813.41,294.97 814.43,290.67 815.46,291.64 816.48,290.77 817.51,285.34 818.54,286.83 819.56,289.46 820.59,289.74 821.61,291.10 822.64,292.94 823.66,293.44 824.69,292.54 825.71,292.33 826.74,293.65 827.76,290.28 828.79,284.71 829.81,283.29 830.84,283.26 831.87,273.46 832.89,263.95 833.92,268.51 834.94,275.71 835.97,271.30 836.99,267.91 838.02,272.72 839.04,275.19 840.07,270.24 841.09,269.55 842.12,273.14 843.14,273.87 844.17,279.02 845.20,286.23 846.22,287.79 847.25,294.65 848.27,305.13 849.30,308.03 850.32,307.56 851.35,307.47 852.37,304.52 853.40,306.22 854.42,305.86 855.45,303.19 856.47,297.28 857.50,290.57 858.53,285.86 859.55,281.70 860.58,279.87 861.60,283.45 862.63,283.30 863.65,276.89 864.68,273.53 865.70,274.87 866.73,275.35 867.75,274.79 868.78,273.69 869.80,270.87 870.83,268.73 871.86,271.63 872.88,276.29 873.91,280.53 874.93,285.85 875.96,286.96 876.98,283.06 878.01,283.32 879.03,289.35 880.06,291.83 881.08,291.54 882.11,291.66 883.13,287.74 884.16,284.94 885.19,289.51 886.21,293.82 887.24,290.09 888.26,289.25 889.29,292.31 890.31,297.10 891.34,298.96 892.36,298.80 893.39,294.74 894.41,291.44 895.44,291.67 896.46,294.22 897.49,296.79 898.52,296.00 899.54,295.49 900.57,298.18 901.59,298.28 902.62,298.80 903.64,298.70 904.67,299.26 905.69,301.56 906.72,299.19 907.74,294.93 908.77,294.25 909.79,295.15 910.82,297.27 911.85,298.03 912.87,298.97 913.90,298.74 914.92,292.10 915.95,295.19 916.97,301.56 918.00,293.76 919.02,288.97 920.05,295.23 921.07,299.68 922.10,296.72 923.12,300.63 924.15,300.85 925.18,296.23 926.20,297.93 927.23,301.44 928.25,301.98 929.28,304.18 930.30,305.45 931.33,306.95 932.35,306.97 933.38,303.56 934.40,306.50 935.43,304.82 936.46,304.33 937.48,301.42 938.51,303.78 939.53,306.52 940.56,306.32 941.58,300.79 942.61,302.13 943.63,303.97 944.66,299.61 945.68,301.60 946.71,299.94 947.73,298.09 948.76,296.43 949.79,292.81 950.81,290.26 951.84,289.78 952.86,291.14 953.89,295.19 954.91,299.68 955.94,298.75 956.96,297.80 957.99,302.53 959.01,300.84 960.04,294.47 961.06,293.92 962.09,299.14 963.12,300.86 964.14,296.06 965.17,295.40 966.19,299.28 967.22,303.13 968.24,304.64 969.27,302.00 970.29,302.62 971.32,304.60 972.34,308.07 973.37,308.34 974.39,306.87 975.42,305.18 976.45,304.64 977.47,306.77 978.50,305.45 979.52,302.71 980.55,306.09 981.57,306.77 982.60,307.88 983.62,306.73 984.65,301.80 985.67,300.08 986.70,303.95 987.72,303.27 988.75,298.26 989.78,299.22 990.80,298.49 991.83,293.13 992.85,294.27 993.88,301.77 994.90,302.59 995.93,297.52 996.95,295.63 997.98,295.60 999.00,298.67 1000.03,300.20 1001.05,297.30 1002.08,295.24 1003.11,296.96 1004.13,297.58 1005.16,298.16 1006.18,297.04 1007.21,295.89 1008.23,301.89 1009.26,308.63 1010.28,301.31 1011.31,303.32 1012.33,302.36 1013.36,298.33 1014.38,298.99 1015.41,302.67 1016.44,299.80 1017.46,298.85 1018.49,304.07 1019.51,301.74 1020.54,300.13 1021.56,302.88 1022.59,299.42 1023.61,300.14 1024.64,307.42 1025.66,305.88 1026.69,306.59 1027.71,307.16 1028.74,307.85 1029.77,306.34 1030.79,305.51 1031.82,307.64 1032.84,306.93 1033.87,305.48 1034.89,304.13 1035.92,308.30 1036.94,303.82 1037.97,303.00 1038.99,306.48 1040.02,303.02 1041.04,302.30 1042.07,299.48 1043.10,291.14 1044.12,291.23 1045.15,297.81 1046.17,294.34 1047.20,293.30 1048.22,297.36 1049.25,298.40 1050.27,295.06 1051.30,300.86 1052.32,301.75 1053.35,299.07 1054.38,301.30 1055.40,303.75 1056.43,300.82 1057.45,301.24 1058.48,305.57 1059.50,308.55 1060.53,308.34 1061.55,302.03 1062.58,301.76 1063.60,303.27 1064.63,304.95 1065.65,302.34 1066.68,300.75 1067.71,302.23 1068.73,302.23 1069.76,303.75 1070.78,300.73 1071.81,297.18 1072.83,297.44 1073.86,298.17 1074.88,296.28 1075.91,297.47 1076.93,301.47 1077.96,299.89 1078.98,294.41 1080.01,296.35 1081.04,301.89 1082.06,302.07 1083.09,303.85 1084.11,305.42 1085.14,301.24 1086.16,301.81 1087.19,304.54 1088.21,298.95 1089.24,296.10 1090.26,293.50 1091.29,294.01 1092.31,296.37 1093.34,297.07 1094.37,293.85 1095.39,291.26 1096.42,294.38 1097.44,300.15 1098.47,300.36 1099.49,298.79 1100.52,299.84 1101.54,304.17 1102.57,304.47 1103.59,306.01 1104.62,305.24 1105.64,304.89 1106.67,305.27 1107.70,303.12 1108.72,307.63 1109.75,306.30 1110.77,303.48 1111.80,306.14 1112.82,305.24 1113.85,305.87 1114.87,300.29 1115.90,292.11 1116.92,294.00 1117.95,297.97 1118.97,298.85 1120.00,298.94"/>
<text x="70" y="40.0" font-size="16" font-family="Arial" fill="#222">X轴：raw_x vs dec_x</text>

<line x1="70.0" y1="400.0" x2="70.0" y2="660.0" stroke="#222" stroke-width="1.2"/>
<line x1="70.0" y1="660.0" x2="1120.0" y2="660.0" stroke="#222" stroke-width="1.2"/>
<polyline fill="none" stroke="#d28b25" stroke-width="1.8" points="70.00,649.69 71.03,646.25 72.05,644.17 73.08,650.50 74.10,651.93 75.13,646.34 76.15,643.88 77.18,645.82 78.20,652.27 79.23,648.62 80.25,649.08 81.28,646.62 82.30,650.95 83.33,655.24 84.36,640.65 85.38,631.99 86.41,635.37 87.43,638.55 88.46,640.32 89.48,649.21 90.51,645.30 91.53,641.32 92.56,632.54 93.58,635.84 94.61,645.55 95.63,645.60 96.66,643.70 97.69,644.08 98.71,637.39 99.74,629.47 100.76,627.29 101.79,626.00 102.81,625.23 103.84,626.02 104.86,627.64 105.89,631.00 106.91,634.08 107.94,631.53 108.96,622.59 109.99,615.20 111.02,617.91 112.04,633.89 113.07,634.11 114.09,637.00 115.12,648.08 116.14,630.12 117.17,627.78 118.19,633.65 119.22,635.53 120.24,630.44 121.27,636.95 122.29,645.51 123.32,632.40 124.35,628.81 125.37,644.05 126.40,658.83 127.42,643.43 128.45,634.45 129.47,624.58 130.50,620.87 131.52,641.64 132.55,632.47 133.57,622.56 134.60,626.03 135.62,647.75 136.65,630.72 137.68,638.29 138.70,633.31 139.73,649.49 140.75,624.46 141.78,632.31 142.80,624.01 143.83,619.99 144.85,632.57 145.88,625.50 146.90,635.49 147.93,636.55 148.96,635.54 149.98,617.20 151.01,609.35 152.03,613.49 153.06,621.81 154.08,640.82 155.11,609.62 156.13,606.73 157.16,612.11 158.18,640.71 159.21,646.23 160.23,606.74 161.26,607.42 162.29,570.91 163.31,597.85 164.34,568.49 165.36,622.15 166.39,652.61 167.41,610.18 168.44,617.47 169.46,642.00 170.49,614.64 171.51,605.61 172.54,653.14 173.56,578.92 174.59,611.79 175.62,598.16 176.64,598.73 177.67,656.74 178.69,624.09 179.72,614.04 180.74,653.50 181.77,645.58 182.79,633.27 183.82,598.48 184.84,576.19 185.87,612.58 186.89,588.88 187.92,618.63 188.95,645.66 189.97,601.61 191.00,653.56 192.02,608.75 193.05,651.80 194.07,644.05 195.10,651.07 196.12,593.01 197.15,630.03 198.17,614.38 199.20,595.50 200.22,631.27 201.25,650.28 202.28,639.23 203.30,621.13 204.33,595.40 205.35,633.65 206.38,623.10 207.40,641.80 208.43,634.50 209.45,646.84 210.48,618.96 211.50,635.21 212.53,633.38 213.55,621.26 214.58,629.78 215.61,638.09 216.63,627.40 217.66,647.26 218.68,619.29 219.71,645.27 220.73,642.71 221.76,641.77 222.78,614.96 223.81,642.31 224.83,638.06 225.86,619.04 226.88,620.77 227.91,602.92 228.94,637.88 229.96,631.68 230.99,650.79 232.01,629.57 233.04,629.72 234.06,649.51 235.09,639.04 236.11,620.19 237.14,632.88 238.16,637.81 239.19,638.13 240.21,638.66 241.24,622.13 242.27,640.39 243.29,627.15 244.32,629.20 245.34,637.72 246.37,611.79 247.39,647.24 248.42,623.56 249.44,643.46 250.47,652.43 251.49,637.02 252.52,607.22 253.54,628.97 254.57,643.73 255.60,623.15 256.62,619.35 257.65,656.08 258.67,631.95 259.70,620.37 260.72,612.03 261.75,643.33 262.77,652.58 263.80,642.64 264.82,646.84 265.85,654.06 266.88,639.19 267.90,653.38 268.93,631.59 269.95,621.46 270.98,638.12 272.00,623.30 273.03,623.46 274.05,623.82 275.08,624.09 276.10,628.74 277.13,615.22 278.15,616.96 279.18,627.98 280.21,629.93 281.23,620.53 282.26,618.85 283.28,652.17 284.31,639.95 285.33,639.42 286.36,643.21 287.38,638.25 288.41,639.92 289.43,652.04 290.46,648.00 291.48,640.72 292.51,625.11 293.54,631.72 294.56,646.79 295.59,652.82 296.61,648.27 297.64,631.46 298.66,628.92 299.69,643.49 300.71,649.89 301.74,649.52 302.76,654.53 303.79,651.19 304.81,648.64 305.84,651.10 306.87,654.58 307.89,649.27 308.92,635.84 309.94,628.82 310.97,630.76 311.99,630.96 313.02,655.73 314.04,657.27 315.07,640.20 316.09,641.90 317.12,652.50 318.14,656.76 319.17,647.93 320.20,638.96 321.22,645.16 322.25,632.34 323.27,633.15 324.30,621.28 325.32,617.82 326.35,626.00 327.37,610.00 328.40,607.26 329.42,633.67 330.45,636.56 331.47,637.86 332.50,642.16 333.53,640.28 334.55,634.87 335.58,638.72 336.60,634.83 337.63,640.09 338.65,637.21 339.68,623.23 340.70,628.73 341.73,635.46 342.75,616.81 343.78,615.88 344.80,626.59 345.83,642.93 346.86,640.69 347.88,620.71 348.91,624.37 349.93,645.37 350.96,651.02 351.98,646.30 353.01,652.46 354.03,646.26 355.06,642.93 356.08,637.39 357.11,648.01 358.13,650.14 359.16,647.21 360.19,656.27 361.21,651.84 362.24,621.18 363.26,607.29 364.29,622.88 365.31,650.09 366.34,645.58 367.36,635.96 368.39,642.45 369.41,654.44 370.44,655.23 371.46,641.32 372.49,628.99 373.52,624.56 374.54,649.97 375.57,647.79 376.59,629.63 377.62,639.50 378.64,650.83 379.67,644.51 380.69,640.76 381.72,638.56 382.74,630.18 383.77,631.24 384.79,643.68 385.82,641.12 386.85,631.69 387.87,639.04 388.90,649.53 389.92,651.74 390.95,650.62 391.97,657.18 393.00,650.51 394.02,650.70 395.05,649.53 396.07,648.44 397.10,645.85 398.12,639.88 399.15,645.15 400.18,645.28 401.20,630.45 402.23,618.08 403.25,626.24 404.28,649.17 405.30,653.83 406.33,655.88 407.35,648.54 408.38,640.39 409.40,643.46 410.43,634.54 411.46,625.26 412.48,623.99 413.51,634.76 414.53,635.48 415.56,630.28 416.58,640.29 417.61,643.20 418.63,622.57 419.66,624.63 420.68,621.35 421.71,636.50 422.73,635.20 423.76,612.06 424.79,606.37 425.81,618.82 426.84,636.10 427.86,626.59 428.89,626.51 429.91,642.99 430.94,658.05 431.96,652.30 432.99,644.51 434.01,627.93 435.04,634.34 436.06,656.00 437.09,653.68 438.12,638.95 439.14,645.19 440.17,639.31 441.19,631.95 442.22,632.47 443.24,640.24 444.27,622.23 445.29,603.46 446.32,618.79 447.34,644.14 448.37,647.38 449.39,640.14 450.42,645.43 451.45,647.73 452.47,638.44 453.50,628.19 454.52,620.29 455.55,633.74 456.57,639.87 457.60,635.05 458.62,635.92 459.65,633.97 460.67,620.88 461.70,604.36 462.72,604.21 463.75,621.15 464.78,626.75 465.80,617.24 466.83,620.25 467.85,641.21 468.88,639.68 469.90,616.60 470.93,611.49 471.95,623.64 472.98,638.84 474.00,643.42 475.03,631.70 476.05,628.00 477.08,632.00 478.11,630.90 479.13,634.64 480.16,651.83 481.18,646.74 482.21,625.21 483.23,630.34 484.26,640.21 485.28,647.94 486.31,640.98 487.33,627.30 488.36,623.63 489.38,635.11 490.41,638.89 491.44,631.91 492.46,631.00 493.49,628.96 494.51,638.98 495.54,633.37 496.56,630.00 497.59,625.35 498.61,630.55 499.64,648.45 500.66,640.99 501.69,617.11 502.71,611.31 503.74,611.41 504.77,600.77 505.79,578.26 506.82,572.80 507.84,579.96 508.87,581.49 509.89,571.78 510.92,559.74 511.94,577.13 512.97,589.67 513.99,571.87 515.02,560.31 516.04,562.93 517.07,571.21 518.10,571.20 519.12,571.46 520.15,584.36 521.17,593.26 522.20,596.76 523.22,613.85 524.25,626.18 525.27,616.00 526.30,598.04 527.32,589.55 528.35,585.74 529.38,591.97 530.40,595.77 531.43,591.83 532.45,592.08 533.48,603.05 534.50,600.65 535.53,587.99 536.55,587.40 537.58,589.04 538.60,587.83 539.63,579.48 540.65,572.48 541.68,580.46 542.71,578.74 543.73,580.47 544.76,589.48 545.78,592.67 546.81,604.13 547.83,603.62 548.86,595.96 549.88,588.18 550.91,576.59 551.93,577.11 552.96,579.29 553.98,583.55 555.01,580.24 556.04,572.62 557.06,584.69 558.09,589.12 559.11,577.34 560.14,574.99 561.16,572.40 562.19,573.45 563.21,584.73 564.24,584.93 565.26,587.48 566.29,591.01 567.31,591.17 568.34,579.95 569.37,576.48 570.39,592.30 571.42,595.64 572.44,579.23 573.47,570.49 574.49,578.94 575.52,576.37 576.54,561.80 577.57,560.46 578.59,564.20 579.62,560.88 580.64,559.15 581.67,552.54 582.70,550.19 583.72,559.62 584.75,555.11 585.77,535.50 586.80,523.80 587.82,534.47 588.85,546.98 589.87,534.42 590.90,534.93 591.92,538.71 592.95,526.53 593.97,520.10 595.00,518.14 596.03,521.70 597.05,525.18 598.08,536.36 599.10,551.06 600.13,552.06 601.15,559.88 602.18,570.66 603.20,561.88 604.23,551.30 605.25,553.01 606.28,550.42 607.30,536.69 608.33,534.24 609.36,548.82 610.38,558.77 611.41,549.77 612.43,547.00 613.46,557.70 614.48,572.74 615.51,566.14 616.53,542.76 617.56,552.40 618.58,578.81 619.61,584.49 620.63,576.64 621.66,581.70 622.69,599.98 623.71,605.18 624.74,595.99 625.76,588.13 626.79,577.26 627.81,567.30 628.84,559.62 629.86,561.19 630.89,570.35 631.91,562.20 632.94,553.86 633.96,546.43 634.99,524.47 636.02,491.23 637.04,463.05 638.07,459.34 639.09,459.46 640.12,459.85 641.14,464.44 642.17,470.00 643.19,491.37 644.22,505.04 645.24,501.21 646.27,506.22 647.29,507.86 648.32,493.49 649.35,470.98 650.37,468.96 651.40,492.80 652.42,512.93 653.45,531.28 654.47,564.73 655.50,598.93 656.52,612.90 657.55,605.61 658.57,591.05 659.60,583.80 660.62,587.99 661.65,589.34 662.68,583.87 663.70,574.77 664.73,574.48 665.75,578.96 666.78,572.63 667.80,567.04 668.83,574.15 669.85,570.21 670.88,537.89 671.90,508.46 672.93,501.55 673.96,487.49 674.98,452.93 676.01,439.96 677.03,454.97 678.06,459.61 679.08,461.71 680.11,484.53 681.13,501.67 682.16,498.97 683.18,509.35 684.21,533.49 685.23,535.59 686.26,531.97 687.29,554.79 688.31,581.25 689.34,584.65 690.36,591.30 691.39,614.56 692.41,608.60 693.44,591.77 694.46,604.20 695.49,612.93 696.51,605.74 697.54,620.92 698.56,643.84 699.59,622.90 700.62,627.56 701.64,622.73 702.67,613.14 703.69,614.93 704.72,613.15 705.74,619.44 706.77,642.57 707.79,653.17 708.82,643.51 709.84,620.28 710.87,602.47 711.89,591.65 712.92,577.77 713.95,561.42 714.97,561.45 716.00,579.40 717.02,582.49 718.05,582.41 719.07,613.34 720.10,644.68 721.12,657.15 722.15,641.56 723.17,634.57 724.20,632.24 725.22,629.76 726.25,633.88 727.28,650.29 728.30,611.34 729.33,570.67 730.35,543.88 731.38,510.71 732.40,477.31 733.43,459.07 734.45,450.81 735.48,453.21 736.50,469.17 737.53,498.26 738.55,536.80 739.58,566.54 740.61,592.05 741.63,619.80 742.66,614.40 743.68,587.97 744.71,563.15 745.73,535.67 746.76,503.48 747.78,470.75 748.81,438.46 749.83,409.21 750.86,400.00 751.88,415.19 752.91,430.04 753.94,449.00 754.96,486.92 755.99,532.37 757.01,574.15 758.04,600.58 759.06,585.43 760.09,553.16 761.11,535.36 762.14,526.33 763.16,507.08 764.19,487.73 765.21,481.97 766.24,482.15 767.27,485.27 768.29,494.43 769.32,497.99 770.34,498.74 771.37,522.50 772.39,562.49 773.42,588.47 774.44,616.12 775.47,603.03 776.49,577.83 777.52,551.18 778.54,507.35 779.57,468.71 780.60,455.67 781.62,457.68 782.65,464.32 783.67,472.46 784.70,470.34 785.72,479.39 786.75,516.86 787.77,536.03 788.80,526.85 789.82,535.80 790.85,559.45 791.88,570.17 792.90,563.87 793.93,561.51 794.95,563.10 795.98,541.10 797.00,523.33 798.03,537.11 799.05,549.82 800.08,546.71 801.10,559.89 802.13,585.54 803.15,581.46 804.18,572.47 805.21,592.99 806.23,614.50 807.26,598.83 808.28,585.51 809.31,591.33 810.33,594.37 811.36,579.16 812.38,569.17 813.41,558.96 814.43,536.42 815.46,532.32 816.48,553.37 817.51,547.71 818.54,526.73 819.56,534.05 820.59,544.49 821.61,544.72 822.64,557.74 823.66,574.53 824.69,574.37 825.71,562.23 826.74,554.66 827.76,543.04 828.79,518.53 829.81,501.03 830.84,493.15 831.87,469.94 832.89,439.91 833.92,429.94 834.94,423.28 835.97,408.48 836.99,406.68 838.02,417.97 839.04,421.49 840.07,416.16 841.09,428.62 842.12,457.65 843.14,472.22 844.17,485.13 845.20,522.37 846.22,557.83 847.25,574.42 848.27,599.24 849.30,629.62 850.32,640.44 851.35,615.91 852.37,593.04 853.40,599.52 854.42,591.95 855.45,561.40 856.47,547.61 857.50,551.93 858.53,548.48 859.55,528.33 860.58,512.25 861.60,514.37 862.63,511.21 863.65,498.71 864.68,501.76 865.70,509.29 866.73,503.85 867.75,503.59 868.78,508.84 869.80,502.76 870.83,505.40 871.86,517.85 872.88,511.13 873.91,505.72 874.93,523.71 875.96,540.99 876.98,544.29 878.01,548.93 879.03,553.73 880.06,553.60 881.08,568.25 882.11,586.51 883.13,581.46 884.16,571.82 885.19,579.81 886.21,595.28 887.24,595.21 888.26,592.02 889.29,597.39 890.31,588.81 891.34,575.76 892.36,586.06 893.39,602.98 894.41,604.56 895.44,604.35 896.46,612.52 897.49,614.47 898.52,615.66 899.54,622.88 900.57,632.60 901.59,627.64 902.62,619.08 903.64,614.48 904.67,617.27 905.69,629.26 906.72,623.98 907.74,614.14 908.77,611.84 909.79,618.90 910.82,618.26 911.85,617.32 912.87,630.37 913.90,639.92 914.92,629.83 915.95,632.00 916.97,634.00 918.00,614.95 919.02,608.76 920.05,617.57 921.07,612.36 922.10,596.18 923.12,598.81 924.15,614.00 925.18,610.37 926.20,607.30 927.23,617.49 928.25,616.13 929.28,611.17 930.30,621.06 931.33,626.49 932.35,619.32 933.38,624.85 934.40,641.81 935.43,641.22 936.46,642.48 937.48,656.90 938.51,650.60 939.53,646.93 940.56,655.08 941.58,649.49 942.61,653.06 943.63,647.30 944.66,639.67 945.68,641.34 946.71,646.62 947.73,636.36 948.76,626.50 949.79,631.27 950.81,635.46 951.84,622.24 952.86,616.83 953.89,625.81 954.91,629.53 955.94,620.79 956.96,627.23 957.99,638.98 959.01,627.05 960.04,620.64 961.06,633.62 962.09,637.69 963.12,635.25 964.14,631.61 965.17,635.71 966.19,638.10 967.22,641.81 968.24,639.05 969.27,631.66 970.29,638.62 971.32,651.47 972.34,650.22 973.37,630.09 974.39,632.20 975.42,650.19 976.45,645.43 977.47,637.47 978.50,647.92 979.52,630.54 980.55,630.58 981.57,638.97 982.60,653.84 983.62,651.29 984.65,655.51 985.67,651.15 986.70,650.01 987.72,634.51 988.75,620.82 989.78,623.82 990.80,629.32 991.83,621.60 992.85,622.92 993.88,621.79 994.90,617.43 995.93,628.00 996.95,635.18 997.98,632.08 999.00,632.76 1000.03,631.56 1001.05,624.37 1002.08,633.82 1003.11,644.34 1004.13,629.11 1005.16,627.31 1006.18,638.52 1007.21,637.92 1008.23,642.83 1009.26,654.12 1010.28,637.53 1011.31,635.16 1012.33,646.15 1013.36,652.41 1014.38,649.87 1015.41,647.26 1016.44,656.01 1017.46,649.72 1018.49,643.91 1019.51,641.57 1020.54,641.62 1021.56,655.42 1022.59,650.52 1023.61,640.90 1024.64,645.05 1025.66,652.00 1026.69,647.60 1027.71,635.30 1028.74,641.85 1029.77,651.49 1030.79,645.94 1031.82,642.18 1032.84,648.76 1033.87,654.78 1034.89,653.73 1035.92,653.73 1036.94,654.84 1037.97,648.97 1038.99,652.63 1040.02,645.17 1041.04,642.24 1042.07,639.43 1043.10,631.30 1044.12,629.79 1045.15,641.06 1046.17,638.03 1047.20,628.83 1048.22,638.98 1049.25,644.09 1050.27,634.60 1051.30,638.71 1052.32,650.04 1053.35,641.09 1054.38,643.64 1055.40,652.83 1056.43,642.32 1057.45,633.46 1058.48,640.96 1059.50,655.47 1060.53,656.01 1061.55,656.22 1062.58,650.00 1063.60,640.92 1064.63,643.22 1065.65,643.61 1066.68,634.34 1067.71,626.45 1068.73,624.06 1069.76,619.00 1070.78,618.95 1071.81,631.58 1072.83,638.96 1073.86,639.63 1074.88,641.44 1075.91,639.85 1076.93,644.47 1077.96,648.33 1078.98,639.41 1080.01,638.16 1081.04,639.61 1082.06,630.15 1083.09,633.32 1084.11,633.07 1085.14,620.65 1086.16,616.82 1087.19,614.52 1088.21,606.46 1089.24,606.20 1090.26,607.65 1091.29,608.26 1092.31,612.92 1093.34,618.02 1094.37,621.92 1095.39,628.02 1096.42,641.45 1097.44,653.29 1098.47,650.04 1099.49,644.80 1100.52,640.19 1101.54,643.15 1102.57,646.09 1103.59,643.13 1104.62,641.05 1105.64,643.05 1106.67,641.99 1107.70,643.60 1108.72,646.92 1109.75,647.51 1110.77,649.95 1111.80,652.08 1112.82,649.52 1113.85,651.08 1114.87,647.40 1115.90,634.47 1116.92,631.07 1117.95,633.74 1118.97,625.57 1120.00,617.49"/>
<polyline fill="none" stroke="#2e9b54" stroke-width="1.8" points="70.00,644.74 71.03,641.27 72.05,639.60 73.08,647.17 74.10,647.24 75.13,642.23 76.15,644.37 77.18,647.20 78.20,651.74 79.23,651.56 80.25,649.53 81.28,649.82 82.30,654.56 83.33,657.55 84.36,649.66 85.38,648.07 86.41,651.00 87.43,649.93 88.46,646.84 89.48,648.48 90.51,653.89 91.53,653.64 92.56,650.95 93.58,652.61 94.61,648.33 95.63,644.01 96.66,643.12 97.69,642.66 98.71,644.43 99.74,648.15 100.76,649.09 101.79,645.16 102.81,641.19 103.84,638.70 104.86,639.08 105.89,638.21 106.91,632.59 107.94,632.59 108.96,637.65 109.99,636.04 111.02,634.51 112.04,640.82 113.07,645.02 114.09,644.14 115.12,648.39 116.14,657.23 117.17,655.15 118.19,655.54 119.22,650.80 120.24,646.29 121.27,648.67 122.29,648.76 123.32,646.30 124.35,646.49 125.37,646.49 126.40,649.29 127.42,652.03 128.45,648.03 129.47,643.20 130.50,650.47 131.52,653.87 132.55,646.14 133.57,647.62 134.60,655.72 135.62,655.47 136.65,652.47 137.68,654.06 138.70,657.63 139.73,656.32 140.75,654.90 141.78,655.03 142.80,650.59 143.83,649.61 144.85,651.90 145.88,649.45 146.90,649.92 147.93,653.93 148.96,647.90 149.98,641.88 151.01,649.99 152.03,657.77 153.06,647.42 154.08,648.25 155.11,650.98 156.13,643.19 157.16,644.62 158.18,652.01 159.21,656.07 160.23,655.79 161.26,648.23 162.29,644.42 163.31,651.37 164.34,647.96 165.36,653.12 166.39,655.29 167.41,648.35 168.44,641.64 169.46,641.64 170.49,640.54 171.51,640.72 172.54,645.12 173.56,643.72 174.59,648.32 175.62,655.90 176.64,657.27 177.67,652.79 178.69,655.37 179.72,652.17 180.74,646.20 181.77,644.22 182.79,653.76 183.82,644.00 184.84,638.72 185.87,645.53 186.89,645.85 187.92,651.26 188.95,657.32 189.97,653.70 191.00,657.41 192.02,646.55 193.05,647.85 194.07,648.04 195.10,644.69 196.12,641.38 197.15,643.51 198.17,655.37 199.20,657.47 200.22,659.81 201.25,655.92 202.28,650.94 203.30,653.47 204.33,655.26 205.35,651.51 206.38,641.08 207.40,638.38 208.43,641.15 209.45,642.53 210.48,644.01 211.50,643.80 212.53,639.57 213.55,643.62 214.58,652.74 215.61,657.92 216.63,654.61 217.66,656.23 218.68,654.11 219.71,651.62 220.73,650.06 221.76,649.89 222.78,648.26 223.81,646.23 224.83,645.69 225.86,652.08 226.88,645.52 227.91,643.04 228.94,652.43 229.96,658.74 230.99,659.18 232.01,656.88 233.04,651.94 234.06,651.21 235.09,645.18 236.11,642.60 237.14,642.75 238.16,636.30 239.19,634.06 240.21,638.68 241.24,640.62 242.27,641.67 243.29,642.88 244.32,642.03 245.34,647.92 246.37,648.51 247.39,653.54 248.42,650.52 249.44,646.98 250.47,648.96 251.49,651.79 252.52,650.14 253.54,650.63 254.57,653.40 255.60,655.76 256.62,655.91 257.65,655.28 258.67,657.86 259.70,658.94 260.72,655.88 261.75,651.25 262.77,653.11 263.80,654.09 264.82,653.98 265.85,656.41 266.88,653.31 267.90,648.43 268.93,645.85 269.95,648.19 270.98,656.64 272.00,652.43 273.03,653.84 274.05,654.27 275.08,649.79 276.10,649.67 277.13,643.74 278.15,646.06 279.18,652.11 280.21,654.18 281.23,655.91 282.26,655.42 283.28,651.25 284.31,652.09 285.33,649.26 286.36,645.24 287.38,642.41 288.41,643.05 289.43,643.31 290.46,639.09 291.48,640.72 292.51,645.47 293.54,640.56 294.56,643.84 295.59,647.79 296.61,641.76 297.64,640.26 298.66,638.69 299.69,638.02 300.71,642.72 301.74,648.51 302.76,649.12 303.79,647.46 304.81,647.60 305.84,647.09 306.87,646.21 307.89,648.05 308.92,648.26 309.94,649.13 310.97,653.07 311.99,653.29 313.02,656.85 314.04,655.89 315.07,655.90 316.09,654.93 317.12,657.16 318.14,656.03 319.17,655.45 320.20,653.76 321.22,649.22 322.25,647.73 323.27,647.27 324.30,645.38 325.32,642.75 326.35,639.44 327.37,636.79 328.40,641.22 329.42,650.30 330.45,654.53 331.47,654.84 332.50,655.77 333.53,650.03 334.55,650.99 335.58,653.82 336.60,648.86 337.63,646.93 338.65,649.91 339.68,648.08 340.70,645.08 341.73,648.10 342.75,650.47 343.78,650.85 344.80,655.72 345.83,656.25 346.86,652.60 347.88,658.58 348.91,655.69 349.93,658.26 350.96,656.66 351.98,647.03 353.01,646.29 354.03,652.29 355.06,648.80 356.08,644.40 357.11,649.12 358.13,650.78 359.16,648.99 360.19,658.82 361.21,653.99 362.24,657.68 363.26,651.63 364.29,655.94 365.31,656.29 366.34,653.33 367.36,652.64 368.39,651.51 369.41,647.74 370.44,650.03 371.46,655.57 372.49,652.43 373.52,646.12 374.54,649.83 375.57,653.19 376.59,657.60 377.62,657.19 378.64,653.40 379.67,654.73 380.69,658.07 381.72,654.93 382.74,651.12 383.77,650.87 384.79,648.58 385.82,644.54 386.85,643.27 387.87,642.80 388.90,643.58 389.92,647.89 390.95,651.69 391.97,651.76 393.00,650.63 394.02,653.15 395.05,656.68 396.07,655.08 397.10,654.24 398.12,656.87 399.15,656.19 400.18,650.68 401.20,653.35 402.23,658.45 403.25,653.80 404.28,649.99 405.30,651.76 406.33,653.01 407.35,647.70 408.38,646.19 409.40,650.79 410.43,649.29 411.46,646.28 412.48,645.02 413.51,655.93 414.53,655.31 415.56,655.96 416.58,653.55 417.61,652.11 418.63,655.11 419.66,652.66 420.68,652.86 421.71,653.25 422.73,657.98 423.76,651.54 424.79,650.20 425.81,653.57 426.84,657.36 427.86,653.73 428.89,651.39 429.91,653.50 430.94,655.91 431.96,658.67 432.99,656.47 434.01,653.20 435.04,655.70 436.06,647.30 437.09,649.12 438.12,650.24 439.14,654.18 440.17,648.20 441.19,645.99 442.22,649.02 443.24,651.42 444.27,640.94 445.29,637.62 446.32,648.54 447.34,652.83 448.37,648.63 449.39,648.52 450.42,650.61 451.45,653.72 452.47,653.36 453.50,655.55 454.52,657.58 455.55,651.40 456.57,646.77 457.60,648.03 458.62,654.44 459.65,652.25 460.67,645.52 461.70,647.27 462.72,652.00 463.75,654.11 464.78,655.41 465.80,651.97 466.83,650.66 467.85,652.03 468.88,651.03 469.90,650.04 470.93,642.24 471.95,637.45 472.98,643.96 474.00,650.81 475.03,646.81 476.05,644.38 477.08,651.23 478.11,654.51 479.13,653.62 480.16,654.91 481.18,653.50 482.21,650.12 483.23,653.04 484.26,650.76 485.28,652.69 486.31,650.12 487.33,648.69 488.36,647.01 489.38,650.09 490.41,655.84 491.44,658.45 492.46,658.59 493.49,656.64 494.51,650.74 495.54,652.18 496.56,655.14 497.59,654.14 498.61,651.02 499.64,647.60 500.66,653.40 501.69,656.80 502.71,655.95 503.74,653.55 504.77,653.23 505.79,654.29 506.82,653.62 507.84,654.93 508.87,653.65 509.89,654.07 510.92,653.81 511.94,652.57 512.97,651.72 513.99,651.19 515.02,647.97 516.04,652.19 517.07,653.29 518.10,652.41 519.12,656.21 520.15,652.31 521.17,651.57 522.20,651.15 523.22,645.46 524.25,643.93 525.27,649.41 526.30,648.67 527.32,647.51 528.35,647.04 529.38,649.91 530.40,655.03 531.43,657.50 532.45,654.12 533.48,656.08 534.50,658.10 535.53,652.31 536.55,646.73 537.58,646.99 538.60,649.51 539.63,648.59 540.65,651.88 541.68,658.19 542.71,657.06 543.73,657.99 544.76,656.64 545.78,653.28 546.81,652.20 547.83,653.72 548.86,651.72 549.88,654.49 550.91,657.13 551.93,658.24 552.96,653.31 553.98,652.91 555.01,655.80 556.04,656.85 557.06,654.65 558.09,655.11 559.11,656.73 560.14,652.76 561.16,648.34 562.19,646.51 563.21,653.30 564.24,651.51 565.26,646.96 566.29,651.81 567.31,656.13 568.34,657.09 569.37,658.86 570.39,657.51 571.42,654.05 572.44,654.79 573.47,657.26 574.49,653.31 575.52,651.33 576.54,652.21 577.57,649.40 578.59,647.02 579.62,647.67 580.64,651.89 581.67,648.01 582.70,642.56 583.72,644.76 584.75,647.00 585.77,641.48 586.80,639.00 587.82,643.83 588.85,647.99 589.87,640.19 590.90,639.35 591.92,642.55 592.95,637.64 593.97,637.22 595.00,637.34 596.03,638.64 597.05,641.89 598.08,640.18 599.10,640.69 600.13,642.04 601.15,640.69 602.18,639.05 603.20,633.98 604.23,634.80 605.25,642.26 606.28,642.88 607.30,637.12 608.33,636.09 609.36,638.21 610.38,637.97 611.41,634.26 612.43,631.17 613.46,631.27 614.48,631.63 615.51,627.06 616.53,622.81 617.56,626.79 618.58,634.92 619.61,637.56 620.63,634.16 621.66,633.98 622.69,637.59 623.71,642.86 624.74,648.79 625.76,646.68 626.79,643.58 627.81,648.93 628.84,656.77 629.86,657.07 630.89,657.94 631.91,656.87 632.94,654.93 633.96,655.48 634.99,655.47 636.02,651.96 637.04,645.96 638.07,652.22 639.09,655.93 640.12,652.68 641.14,654.36 642.17,652.40 643.19,652.67 644.22,650.62 645.24,647.40 646.27,653.75 647.29,648.98 648.32,645.31 649.35,641.36 650.37,636.03 651.40,639.51 652.42,644.52 653.45,645.90 654.47,642.56 655.50,644.46 656.52,648.84 657.55,641.75 658.57,632.35 659.60,635.28 660.62,642.17 661.65,638.81 662.68,636.52 663.70,637.30 664.73,637.28 665.75,639.30 666.78,644.33 667.80,643.44 668.83,642.00 669.85,643.75 670.88,644.16 671.90,639.21 672.93,639.74 673.96,644.38 674.98,641.05 676.01,637.80 677.03,639.99 678.06,640.58 679.08,637.50 680.11,636.99 681.13,638.77 682.16,642.75 683.18,646.89 684.21,651.15 685.23,651.32 686.26,654.25 687.29,656.58 688.31,651.78 689.34,647.64 690.36,649.64 691.39,645.69 692.41,636.43 693.44,639.59 694.46,645.14 695.49,641.10 696.51,642.41 697.54,646.87 698.56,644.16 699.59,642.98 700.62,650.58 701.64,653.11 702.67,652.74 703.69,659.14 704.72,657.39 705.74,652.99 706.77,650.55 707.79,647.98 708.82,643.08 709.84,638.33 710.87,637.56 711.89,637.61 712.92,634.98 713.95,633.67 714.97,636.15 716.00,642.21 717.02,645.24 718.05,646.22 719.07,653.93 720.10,657.00 721.12,652.53 722.15,645.96 723.17,646.99 724.20,649.93 725.22,644.13 726.25,642.65 727.28,642.66 728.30,635.97 729.33,634.78 730.35,637.30 731.38,633.39 732.40,629.25 733.43,626.59 734.45,624.48 735.48,628.22 736.50,634.11 737.53,637.88 738.55,642.21 739.58,651.30 740.61,654.00 741.63,653.10 742.66,653.52 743.68,643.62 744.71,641.90 745.73,633.60 746.76,622.57 747.78,613.30 748.81,602.77 749.83,598.94 750.86,603.34 751.88,606.14 752.91,604.26 753.94,612.01 754.96,624.97 755.99,629.54 757.01,634.98 758.04,645.01 759.06,643.48 760.09,638.98 761.11,635.18 762.14,630.45 763.16,624.27 764.19,618.45 765.21,617.30 766.24,617.29 767.27,613.08 768.29,611.21 769.32,611.57 770.34,613.41 771.37,625.13 772.39,637.24 773.42,638.76 774.44,640.95 775.47,632.64 776.49,628.34 777.52,626.69 778.54,612.73 779.57,604.30 780.60,605.22 781.62,603.73 782.65,603.82 783.67,606.91 784.70,606.88 785.72,612.80 786.75,625.14 787.77,629.45 788.80,626.09 789.82,626.50 790.85,634.24 791.88,638.61 792.90,630.57 793.93,626.60 794.95,631.78 795.98,631.88 797.00,628.82 798.03,628.70 799.05,628.95 800.08,629.48 801.10,636.20 802.13,640.61 803.15,636.41 804.18,634.33 805.21,639.83 806.23,653.41 807.26,651.02 808.28,643.53 809.31,642.01 810.33,647.17 811.36,643.50 812.38,636.98 813.41,635.67 814.43,631.82 815.46,628.39 816.48,634.61 817.51,637.63 818.54,633.04 819.56,635.01 820.59,638.22 821.61,641.13 822.64,645.29 823.66,648.25 824.69,644.97 825.71,640.60 826.74,638.73 827.76,634.92 828.79,628.31 829.81,625.88 830.84,625.70 831.87,616.07 832.89,607.17 833.92,610.88 834.94,611.16 835.97,603.55 836.99,607.42 838.02,612.57 839.04,605.98 840.07,601.12 841.09,606.16 842.12,613.19 843.14,615.52 844.17,617.56 845.20,625.27 846.22,635.41 847.25,641.10 848.27,646.06 849.30,656.46 850.32,658.65 851.35,653.33 852.37,648.04 853.40,648.07 854.42,645.47 855.45,640.70 856.47,638.83 857.50,640.36 858.53,636.21 859.55,623.79 860.58,615.25 861.60,615.18 862.63,613.23 863.65,604.68 864.68,601.63 865.70,607.07 866.73,610.40 867.75,608.79 868.78,607.79 869.80,607.84 870.83,611.43 871.86,618.30 872.88,621.55 873.91,621.74 874.93,625.01 875.96,631.82 876.98,632.50 878.01,634.16 879.03,640.01 880.06,639.06 881.08,637.78 882.11,641.55 883.13,641.07 884.16,638.40 885.19,641.61 886.21,648.31 887.24,647.44 888.26,643.61 889.29,645.73 890.31,647.51 891.34,645.89 892.36,650.45 893.39,656.00 894.41,650.87 895.44,648.31 896.46,652.90 897.49,652.93 898.52,650.09 899.54,649.00 900.57,647.55 901.59,644.72 902.62,640.09 903.64,638.81 904.67,641.68 905.69,643.57 906.72,639.01 907.74,637.15 908.77,639.83 909.79,645.71 910.82,644.21 911.85,640.72 912.87,644.61 913.90,652.30 914.92,649.82 915.95,646.85 916.97,652.40 918.00,646.57 919.02,640.61 920.05,644.05 921.07,643.83 922.10,637.11 923.12,638.10 924.15,647.38 925.18,651.91 926.20,654.00 927.23,657.69 928.25,656.28 929.28,652.83 930.30,656.34 931.33,655.19 932.35,657.81 933.38,659.57 934.40,654.25 935.43,650.14 936.46,651.36 937.48,648.86 938.51,649.08 939.53,651.78 940.56,650.73 941.58,649.53 942.61,650.22 943.63,648.57 944.66,648.42 945.68,650.49 946.71,650.51 947.73,646.27 948.76,640.88 949.79,641.30 950.81,643.92 951.84,639.06 952.86,641.54 953.89,649.98 954.91,650.66 955.94,645.94 956.96,649.83 957.99,658.35 959.01,651.43 960.04,644.00 961.06,648.86 962.09,647.33 963.12,643.18 964.14,644.96 965.17,650.66 966.19,653.09 967.22,654.06 968.24,658.95 969.27,655.24 970.29,652.72 971.32,651.09 972.34,649.84 973.37,647.96 974.39,648.85 975.42,658.52 976.45,657.07 977.47,645.83 978.50,653.70 979.52,652.61 980.55,657.86 981.57,651.77 982.60,652.33 983.62,651.16 984.65,647.66 985.67,644.15 986.70,644.31 987.72,643.19 988.75,641.45 989.78,644.33 990.80,642.59 991.83,640.06 992.85,641.34 993.88,642.21 994.90,649.45 995.93,652.99 996.95,654.08 997.98,654.83 999.00,651.50 1000.03,649.43 1001.05,649.12 1002.08,651.66 1003.11,651.86 1004.13,646.58 1005.16,649.62 1006.18,651.01 1007.21,649.76 1008.23,653.83 1009.26,649.00 1010.28,643.32 1011.31,650.56 1012.33,651.90 1013.36,646.90 1014.38,651.23 1015.41,653.08 1016.44,650.64 1017.46,649.67 1018.49,652.30 1019.51,651.77 1020.54,651.98 1021.56,654.74 1022.59,647.84 1023.61,646.20 1024.64,649.73 1025.66,650.52 1026.69,658.95 1027.71,656.68 1028.74,655.49 1029.77,655.00 1030.79,657.55 1031.82,655.83 1032.84,656.43 1033.87,653.79 1034.89,657.76 1035.92,656.74 1036.94,654.54 1037.97,648.68 1038.99,647.16 1040.02,649.39 1041.04,646.15 1042.07,635.43 1043.10,633.32 1044.12,641.03 1045.15,646.60 1046.17,641.06 1047.20,634.45 1048.22,640.28 1049.25,644.39 1050.27,640.20 1051.30,641.91 1052.32,654.70 1053.35,651.82 1054.38,648.15 1055.40,650.43 1056.43,655.19 1057.45,646.50 1058.48,644.28 1059.50,649.71 1060.53,655.96 1061.55,655.48 1062.58,653.55 1063.60,650.32 1064.63,651.64 1065.65,649.73 1066.68,646.26 1067.71,647.03 1068.73,649.66 1069.76,642.05 1070.78,637.55 1071.81,644.53 1072.83,649.16 1073.86,649.34 1074.88,648.70 1075.91,645.55 1076.93,647.45 1077.96,652.44 1078.98,649.83 1080.01,649.29 1081.04,652.56 1082.06,654.00 1083.09,653.28 1084.11,654.53 1085.14,652.55 1086.16,650.25 1087.19,647.25 1088.21,641.26 1089.24,639.68 1090.26,642.52 1091.29,646.44 1092.31,647.99 1093.34,648.50 1094.37,648.55 1095.39,648.77 1096.42,651.74 1097.44,654.73 1098.47,651.44 1099.49,649.88 1100.52,649.57 1101.54,650.69 1102.57,654.11 1103.59,657.90 1104.62,657.78 1105.64,656.99 1106.67,653.90 1107.70,655.57 1108.72,657.11 1109.75,653.96 1110.77,653.50 1111.80,652.93 1112.82,651.70 1113.85,651.48 1114.87,651.58 1115.90,649.91 1116.92,648.64 1117.95,648.88 1118.97,647.72 1120.00,645.43"/>
<text x="70" y="390.0" font-size="16" font-family="Arial" fill="#222">Y轴：raw_y vs dec_y</text>

<rect x="840" y="68" width="260" height="90" fill="#fff" stroke="#ddd"/>
<line x1="860" y1="92" x2="900" y2="92" stroke="#c35a42" stroke-width="2"/><text x="910" y="96" font-size="13" font-family="Arial">raw_x</text>
<line x1="860" y1="116" x2="900" y2="116" stroke="#1d78b5" stroke-width="2"/><text x="910" y="120" font-size="13" font-family="Arial">dec_x</text>
<line x1="860" y1="140" x2="900" y2="140" stroke="#d28b25" stroke-width="2"/><text x="910" y="144" font-size="13" font-family="Arial">raw_y</text>
<line x1="860" y1="164" x2="900" y2="164" stroke="#2e9b54" stroke-width="2"/><text x="910" y="168" font-size="13" font-family="Arial">dec_y</text>

<text x="70" y="692" font-size="12" font-family="Arial" fill="#444">frequency / Hz</text>
<text x="16" y="210" font-size="12" font-family="Arial" fill="#444" transform="rotate(-90 16,210)">amplitude</text>
<text x="16" y="560" font-size="12" font-family="Arial" fill="#444" transform="rotate(-90 16,560)">amplitude</text>
</svg>